# xmcd
#
# Track frame offsets:
#	150
#	15182
#	27165
#	48513
#	62816
#	78823
#	93992
#	109020
#	127703
#	143747
#	160101
#	175471
#	192199
#	208777
#	229564
#	242320
#
# Disc length: 3421 seconds
#
# Revision: 6
# Processed by: cddbd v1.5.2PL0 Copyright (c) Steve Scherf et al.
# Submitted via: EasyCDDAExtractor 15.3.0.1
#
DISCID=bb0d5b10
DTITLE=Rocio Durcal - Su Historia Y Exitos Musicales Vol. 3 - CD 2
DYEAR=2004
DGENRE=Latin
TTITLE0=Volver A Verte (En Vivo)
TTITLE1=Desaires
TTITLE2=Si Te Pudiera Mentir
TTITLE3=Mi Credo
TTITLE4=Como Han Pasado Los Años
TTITLE5=Hay Amores Y Amores
TTITLE6=Vestida De Blanco
TTITLE7=El Juzgado 23
TTITLE8=Para Toda La Vida
TTITLE9=Caricias
TTITLE10=Infiel
TTITLE11=Caminito
TTITLE12=Sombras... Nada Mas
TTITLE13=Nostalgias
TTITLE14=De Que Manera Te Olvido
TTITLE15=Si Nos Dejan
EXTD=
EXTT0=
EXTT1=
EXTT2=
EXTT3=
EXTT4=
EXTT5=
EXTT6=
EXTT7=
EXTT8=
EXTT9=
EXTT10=
EXTT11=
EXTT12=
EXTT13=
EXTT14=
EXTT15=
PLAYORDER=
